# Blender v2.81 (sub 16) OBJ File: ''
# www.blender.org
mtllib cube.mtl
o cube
v 1.000000 1.000000 -1.000000
v 1.000000 -1.000000 -1.000000
v -1.000000 -1.000000 -1.000000
v -1.000000 1.000000 -1.000000
v -1.000000 -1.000000 1.000000
v -1.000000 1.000000 1.000000
v 1.000000 -1.000000 1.000000
v 0.999999 1.000000 1.000001
vt 0.500006 0.750008
vt 0.500002 0.500004
vt 0.635880 0.500016
vt 0.635947 0.750129
vt 0.771776 0.499954
vt 0.771742 0.749992
vt 0.364143 0.500003
vt 0.364130 0.749993
vt 0.228431 0.500072
vt 0.228260 0.750025
vt 0.500000 1.000005
vt 0.364133 1.000006
vt 0.364131 0.250002
vt 0.500050 0.249975
vn 0.0000 0.0000 -1.0000
vn -1.0000 0.0000 0.0000
vn 0.0000 -0.0000 1.0000
vn 1.0000 0.0000 0.0000
vn 0.0000 1.0000 0.0000
vn 0.0000 -1.0000 -0.0000
usemtl Material_ray.png
s 1
f 1/1/1 2/2/1 3/3/1
f 1/1/1 3/3/1 4/4/1
f 5/5/2 6/6/2 4/4/2
f 5/5/2 4/4/2 3/3/2
f 7/7/3 8/8/3 5/9/3
f 8/8/3 6/10/3 5/9/3
f 2/2/4 1/1/4 7/7/4
f 1/1/4 8/8/4 7/7/4
f 1/1/5 4/11/5 8/8/5
f 4/11/5 6/12/5 8/8/5
f 2/2/6 7/7/6 5/13/6
f 2/2/6 5/13/6 3/14/6
